<?xml version="1.0" encoding="UTF-8"?>
<svg version="1.1" xmlns="http://www.w3.org/2000/svg" width="500" height="500">
<path d="M0 0 C3.4375 0.75 3.4375 0.75 6 2 C6.875 4.125 6.875 4.125 7 6 C7.66 6 8.32 6 9 6 C10.75623315 11.37578685 11.39316874 16.30110255 11.625 21.9375 C11.66367188 22.71673828 11.70234375 23.49597656 11.7421875 24.29882812 C11.83544127 26.19887379 11.91875962 28.09940278 12 30 C12.77859375 29.22011719 13.5571875 28.44023437 14.359375 27.63671875 C15.97975151 26.01873925 17.60817906 24.40871481 19.25 22.8125 C21.07107096 21.10747316 21.07107096 21.10747316 22 19 C25.0625 18.375 25.0625 18.375 28 18 C28 17.34 28 16.68 28 16 C29.95803507 15.94610913 31.91648909 15.90725783 33.875 15.875 C35.51082031 15.84019531 35.51082031 15.84019531 37.1796875 15.8046875 C40 16 40 16 42 18 C43.65385233 19.34919532 45.321702 20.68133728 47 22 C48.0828125 22.86625 48.0828125 22.86625 49.1875 23.75 C50.9074477 25.18924432 50.9074477 25.18924432 53 25 C55.09448302 30.53541942 56.02782755 36.18764979 57 42 C57 40.35 57 38.7 57 37 C58.98 37.495 58.98 37.495 61 38 C61.20625 37.360625 61.4125 36.72125 61.625 36.0625 C63 34 63 34 65.875 33.1875 C68.61800014 33.02291999 70.43512912 33.11216008 73 34 C73 34.99 73 35.98 73 37 C74.80252869 37.70194993 74.80252869 37.70194993 77 38 C77.52358093 37.6840538 78.04716187 37.3681076 78.58660889 37.04258728 C82.24643967 35.46153686 85.94206564 35.69669723 89.86425781 35.69360352 C90.75907364 35.68528 91.65388947 35.67695648 92.57582092 35.66838074 C95.53496654 35.64428003 98.49389163 35.63550773 101.453125 35.62890625 C103.51332668 35.61993873 105.57352769 35.61081686 107.63372803 35.60154724 C111.95456525 35.58505362 116.27532496 35.57735666 120.59619141 35.57446289 C126.12214568 35.56908419 131.64736719 35.53142655 137.17311478 35.48571873 C141.43003978 35.45591405 145.68678925 35.44873856 149.94380951 35.44773674 C151.980307 35.44353986 154.01680528 35.43112704 156.05319977 35.41021919 C158.90872861 35.3832395 161.7625711 35.38815031 164.61816406 35.40063477 C165.87002251 35.37838333 165.87002251 35.37838333 167.14717102 35.35568237 C173.36250754 35.43271903 177.03986064 37.38173491 182 41 C183.66360078 42.00509214 185.32874278 43.00769103 187 44 C186.67 44.66 186.34 45.32 186 46 C186.54352485 47.90130561 186.54352485 47.90130561 187.41699219 50.01171875 C189.18206421 55.04645671 189.40531339 59.51584046 189.328125 64.8125 C189.32625183 65.70743164 189.32437866 66.60236328 189.32244873 67.52441406 C189.31577725 69.39668561 189.30196198 71.26894441 189.28125 73.14111328 C189.24978152 76.01998707 189.24024159 78.89831412 189.234375 81.77734375 C189.22521628 83.60156925 189.21484414 85.42578915 189.203125 87.25 C189.19887512 88.11343018 189.19462524 88.97686035 189.19024658 89.86645508 C189.11723911 95.88276089 189.11723911 95.88276089 188 97 C189.65 97.33 191.3 97.66 193 98 C192.75660889 96.72552002 192.75660889 96.72552002 192.50830078 95.42529297 C191.99393865 91.95915429 191.87057705 88.69768438 191.8671875 85.1953125 C191.86380371 83.2472168 191.86380371 83.2472168 191.86035156 81.25976562 C191.86437388 79.88150764 191.8692714 78.50325195 191.875 77.125 C191.87721558 76.42947021 191.87943115 75.73394043 191.88171387 75.01733398 C191.99889124 43.81209937 191.99889124 43.81209937 197 38 C200.47832335 35.52652562 202.29032256 34.97509904 206.5625 35.125 C211.21846596 36.31015497 214.95133958 38.22546806 218 42 C219.71014048 45.6226661 220.24834334 48.46906636 220.24050903 52.46064758 C220.24463303 54.08647514 220.24463303 54.08647514 220.24884033 55.74514771 C220.2380545 57.51352493 220.2380545 57.51352493 220.22705078 59.31762695 C220.22734283 60.56681412 220.22763489 61.81600128 220.22793579 63.1030426 C220.22678268 66.52008817 220.21676465 69.93689092 220.20278788 73.35389352 C220.19027012 76.92799426 220.18910919 80.50209837 220.18673706 84.07621765 C220.18052536 90.84053199 220.16411875 97.60478154 220.14403808 104.36906737 C220.12166942 112.07156694 220.11068322 119.77406964 220.10064721 127.47659361 C220.07975224 143.31776657 220.04458231 159.15887493 220 175 C219.67 175 219.34 175 219 175 C218.67 167.74 218.34 160.48 218 153 C218 161.25 218 169.5 218 178 C209.75 178 201.5 178 193 178 C192.97302418 173.77079065 192.95317219 169.5417535 192.9375 165.3125 C192.92912109 164.11431641 192.92074219 162.91613281 192.91210938 161.68164062 C192.90888672 160.52470703 192.90566406 159.36777344 192.90234375 158.17578125 C192.89710693 157.11270752 192.89187012 156.04963379 192.88647461 154.9543457 C192.99318557 152.17733651 193.41050429 149.70795177 194 147 C194.55421342 142.29382217 194.55421342 142.29382217 192.5625 138.3125 C192.046875 137.879375 191.53125 137.44625 191 137 C190.9175 136.34 190.835 135.68 190.75 135 C190.13287847 132.70026432 190.13287847 132.70026432 187.3515625 131.515625 C181.40459983 129.11140486 174.93718512 128.59418281 168.625 127.75 C166.68173828 127.4715625 166.68173828 127.4715625 164.69921875 127.1875 C159.85991407 126.50011737 159.85991407 126.50011737 155 126 C154.67 126.33 154.34 126.66 154 127 C152.43576568 127.01665074 150.87064994 126.96308892 149.30859375 126.87890625 C147.89223633 126.80639648 147.89223633 126.80639648 146.44726562 126.73242188 C145.45404297 126.67634766 144.46082031 126.62027344 143.4375 126.5625 C142.44041016 126.51029297 141.44332031 126.45808594 140.41601562 126.40429688 C137.94372478 126.2741763 135.4717937 126.13919819 133 126 C133 125.34 133 124.68 133 124 C113.76319866 122.25403424 94.16353318 122.5253712 74.875 123.3125 C74.13080811 123.33489746 73.38661621 123.35729492 72.61987305 123.38037109 C68.23843386 123.60931023 65.63488987 124.62114537 62 127 C59.66800612 127.07905064 57.33167378 127.08798769 55 127 C54.01 127.495 54.01 127.495 53 128 C50.66666667 127.66666667 48.33333333 127.33333333 46 127 C42.99767784 126.91421937 40.00265379 126.93872135 37 127 C37 127.66 37 128.32 37 129 C32.71 129 28.42 129 24 129 C24 129.66 24 130.32 24 131 C22.07942708 130.83723958 20.15885417 130.67447917 18.23828125 130.51171875 C14.60644914 131.30400324 13.26863117 133.10860734 11 136 C10.32212483 139.09053198 10.41594534 142.08691548 10.51171875 145.23828125 C10.51879349 146.11904831 10.52586823 146.99981537 10.53315735 147.90727234 C10.56106152 150.70989285 10.62379057 153.51048735 10.6875 156.3125 C10.7125881 158.21676794 10.73540038 160.12106732 10.75585938 162.02539062 C10.81087497 166.68436984 10.89711849 171.34184189 11 176 C7.98107411 177.00630863 5.93703824 177.12898 2.78125 177.1328125 C1.76675781 177.13410156 0.75226563 177.13539063 -0.29296875 177.13671875 C-1.35128906 177.13285156 -2.40960938 177.12898437 -3.5 177.125 C-4.55832031 177.12886719 -5.61664063 177.13273438 -6.70703125 177.13671875 C-7.72152344 177.13542969 -8.73601562 177.13414062 -9.78125 177.1328125 C-10.71001953 177.13168457 -11.63878906 177.13055664 -12.59570312 177.12939453 C-15 177 -15 177 -18 176 C-18.07005871 154.31228129 -18.1229728 132.62458123 -18.15543652 110.93677235 C-18.17091014 100.86690808 -18.19200916 90.79711409 -18.22631836 80.72729492 C-18.25620551 71.95117814 -18.2755714 63.17511225 -18.28226548 54.39894599 C-18.2861789 49.75135638 -18.29538629 45.10391238 -18.31719017 40.4563694 C-18.3375445 36.08238515 -18.34383593 31.70860658 -18.33932304 27.33457947 C-18.34014872 25.72894867 -18.34612069 24.12331103 -18.35761642 22.51772118 C-18.37254441 20.32530747 -18.36895299 18.13367011 -18.36076355 15.9412384 C-18.36352893 14.71433194 -18.36629431 13.48742548 -18.36914349 12.22334003 C-17.9652959 8.69696573 -17.11293794 6.82224572 -15 4 C-13 2.8125 -13 2.8125 -11 2 C-7.25842875 -0.49438083 -4.32413692 -0.39161995 0 0 Z M-16 7 C-15 9 -15 9 -15 9 Z M8 9 C8 10.65 8 12.3 8 14 C8.66 13.67 9.32 13.34 10 13 C9.34 11.68 8.68 10.36 8 9 Z M31 17 C31 17.33 31 17.66 31 18 C33.64 18 36.28 18 39 18 C39 17.67 39 17.34 39 17 C36.36 17 33.72 17 31 17 Z M13 31 C14 33 14 33 14 33 Z M11 36 C12 39 12 39 12 39 Z M79 38 C77.78105334 47.08340991 78.09328138 56.0007548 78.4375 65.125 C78.49084504 66.66924986 78.5435841 68.21352078 78.59570312 69.7578125 C78.72348716 73.50547677 78.85945572 77.25279 79 81 C79.33 81 79.66 81 80 81 C80 66.81 80 52.62 80 38 C79.67 38 79.34 38 79 38 Z M11 40 C11 43.63 11 47.26 11 51 C11.33 51 11.66 51 12 51 C12 47.37 12 43.74 12 40 C11.67 40 11.34 40 11 40 Z M217 44 C218 46 218 46 218 46 Z M9 15 C9 36.12 9 57.24 9 79 C9.99 78.01 10.98 77.02 12 76 C14.94831571 74.27808452 17.97907179 73.32184764 21.25 72.375 C22.58804688 71.98441406 22.58804688 71.98441406 23.953125 71.5859375 C24.62859375 71.39257812 25.3040625 71.19921875 26 71 C25.01 70.34 24.02 69.68 23 69 C23.66 68.34 24.32 67.68 25 67 C23.71372289 65.82739389 22.42080217 64.6620717 21.125 63.5 C20.04605469 62.52546875 20.04605469 62.52546875 18.9453125 61.53125 C17.15068902 59.79382728 17.15068902 59.79382728 15 60 C14.87625 59.071875 14.7525 58.14375 14.625 57.1875 C14.18466918 53.86074765 14.18466918 53.86074765 12 51 C11.67 51.66 11.34 52.32 11 53 C10.67 40.46 10.34 27.92 10 15 C9.67 15 9.34 15 9 15 Z M55 52 C56 54 56 54 56 54 Z M53 56 C54 58 54 58 54 58 Z M55 56 C56 59 56 59 56 59 Z M46.8125 63.5 C45.73935547 64.47453125 45.73935547 64.47453125 44.64453125 65.46875 C44.10183594 65.9740625 43.55914062 66.479375 43 67 C43.33 67.66 43.66 68.32 44 69 C47.3 69 50.6 69 54 69 C54 66.03 54 63.06 54 60 C50.22089522 60 49.53893899 60.99703962 46.8125 63.5 Z M55 60 C55 62.97 55 65.94 55 69 C55.66 68.34 56.32 67.68 57 67 C56.67673447 63.40320934 56.67673447 63.40320934 56 60 C55.67 60 55.34 60 55 60 Z M27 69 C27 69.66 27 70.32 27 71 C27.99 71 28.98 71 30 71 C30 70.34 30 69.68 30 69 C29.01 69 28.02 69 27 69 Z M31 70 C31 70.33 31 70.66 31 71 C39.58 71 48.16 71 57 71 C57 70.67 57 70.34 57 70 C53.79224458 69.80159605 50.58379499 69.61824575 47.375 69.4375 C46.01955078 69.35338867 46.01955078 69.35338867 44.63671875 69.26757812 C39.91943783 69.00933282 35.65068353 68.95707263 31 70 Z M11 78 C12 81 12 81 12 81 Z M9 80 C9 85.94 9 91.88 9 98 C9.33 98 9.66 98 10 98 C10.33 92.39 10.66 86.78 11 81 C10.34 80.67 9.68 80.34 9 80 Z M11 88 C12 90 12 90 12 90 Z M77 89 C76.67 89.99 76.34 90.98 76 92 C76.66 92 77.32 92 78 92 C77.67 91.01 77.34 90.02 77 89 Z M11 92 C11 93.98 11 95.96 11 98 C17.435 97.505 17.435 97.505 24 97 C24 96.67 24 96.34 24 96 C22.96875 95.71125 21.9375 95.4225 20.875 95.125 C17.54992003 94.17691202 14.27248547 93.11743406 11 92 Z M63.50683594 96.09179688 C62.18591949 96.121828 62.18591949 96.121828 60.83831787 96.15246582 C59.89651672 96.1743396 58.95471558 96.19621338 57.984375 96.21875 C57.01340881 96.24094604 56.04244263 96.26314209 55.04205322 96.28601074 C51.94469219 96.35691366 48.84734612 96.4284489 45.75 96.5 C43.64843846 96.54821877 41.54687597 96.59639634 39.4453125 96.64453125 C34.29686391 96.7625431 29.14842866 96.88112201 24 97 C24 97.33 24 97.66 24 98 C30.35372519 98.050652 36.70739844 98.08571322 43.0612793 98.10986328 C45.22340847 98.11992951 47.385524 98.13358354 49.54760742 98.15087891 C52.65286625 98.17509978 55.7579453 98.18647681 58.86328125 98.1953125 C59.83211746 98.20563507 60.80095367 98.21595764 61.79914856 98.22659302 C63.15020943 98.22681961 63.15020943 98.22681961 64.52856445 98.22705078 C65.32132278 98.231492 66.11408112 98.23593323 66.93086243 98.24050903 C69.30803673 98.12319753 69.30803673 98.12319753 72 96 C69.16443169 96 66.34070132 96.02665054 63.50683594 96.09179688 Z M79 82 C78.855625 83.0725 78.71125 84.145 78.5625 85.25 C78.2840625 87.10625 78.2840625 87.10625 78 89 C77.9175 89.763125 77.835 90.52625 77.75 91.3125 C77 93 77 93 74.4375 94.25 C73.633125 94.4975 72.82875 94.745 72 95 C72.495 96.485 72.495 96.485 73 98 C72.36043869 97.99777939 71.72087738 97.99555878 71.06193542 97.99327087 C64.36136437 97.97102169 57.66080393 97.95601204 50.96020508 97.94506836 C48.46475803 97.94006229 45.96931388 97.93325545 43.47387695 97.92456055 C39.87190024 97.91233095 36.26996255 97.90673427 32.66796875 97.90234375 C31.56543259 97.89718246 30.46289642 97.89202118 29.32695007 97.88670349 C22.49610425 97.88621688 15.79034632 98.25438236 9 99 C9 99.33 9 99.66 9 100 C69.39 100 129.78 100 192 100 C192 99.67 192 99.34 192 99 C189.03 98.67 186.06 98.34 183 98 C183.66 97.34 184.32 96.68 185 96 C150.35 96 115.7 96 80 96 C80 91.38 80 86.76 80 82 C79.67 82 79.34 82 79 82 Z M54 124 C54.33 124.66 54.66 125.32 55 126 C55.66 125.34 56.32 124.68 57 124 C56.01 124 55.02 124 54 124 Z M58 124 C58 124.33 58 124.66 58 125 C60.31 125 62.62 125 65 125 C65 124.67 65 124.34 65 124 C62.69 124 60.38 124 58 124 Z M140 124 C144 125 144 125 144 125 Z M46 125 C46 125.33 46 125.66 46 126 C48.31 126 50.62 126 53 126 C53 125.67 53 125.34 53 125 C50.69 125 48.38 125 46 125 Z M145 125 C145 125.33 145 125.66 145 126 C147.31 126 149.62 126 152 126 C152 125.67 152 125.34 152 125 C149.69 125 147.38 125 145 125 Z M9 137 C10 139 10 139 10 139 Z M8 139 C9 141 9 141 9 141 Z M8 142 C8 143.65 8 145.3 8 147 C8.33 147 8.66 147 9 147 C9 145.35 9 143.7 9 142 C8.67 142 8.34 142 8 142 Z M9 147 C10 150 10 150 10 150 Z " fill="#B3DDFC" transform="translate(149,173)"/>
<path d="M0 0 C0.125 4.75 0.125 4.75 -1 7 C-0.88801216 8.52583437 -0.71398272 10.04759961 -0.5 11.5625 C-0.29246252 13.03648779 -0.11616338 14.51601285 0 16 C-2.04698414 18.04698414 -6.30411241 17.70045693 -9 18 C-7.83267104 19.37077501 -7.83267104 19.37077501 -4.625 19.4375 C-1 20 -1 20 2 22 C2.25 24.5625 2.25 24.5625 2 27 C0.41727399 28.58272601 -1.38034003 28.34735747 -3.5625 28.5625 C-4.80193359 28.68818359 -4.80193359 28.68818359 -6.06640625 28.81640625 C-6.70449219 28.87699219 -7.34257812 28.93757813 -8 29 C-8 29.66 -8 30.32 -8 31 C-10.97 31 -13.94 31 -17 31 C-17.66 29.68 -18.32 28.36 -19 27 C-19 27.99 -19 28.98 -19 30 C-26.42857143 30.14285714 -26.42857143 30.14285714 -30 29 C-30.33 27.68 -30.66 26.36 -31 25 C-31.185625 25.94875 -31.37125 26.8975 -31.5625 27.875 C-33 31 -33 31 -36.4375 32.4375 C-40 33 -40 33 -43 32 C-42.98839844 31.13117188 -42.97679687 30.26234375 -42.96484375 29.3671875 C-42.95582031 28.21476562 -42.94679687 27.06234375 -42.9375 25.875 C-42.92589844 24.73804688 -42.91429687 23.60109375 -42.90234375 22.4296875 C-42.99486345 19.1803956 -43.43319908 16.19429669 -44 13 C-44.15587429 10.29970719 -44.09191363 7.71145222 -44 5 C-42.0237237 3.0237237 -38.45116151 3.45856426 -35.75 3.25 C-35.08097656 3.18167969 -34.41195312 3.11335938 -33.72265625 3.04296875 C-29.1899242 2.69566708 -26.63458594 3.26701677 -23 6 C-22.690625 5.360625 -22.38125 4.72125 -22.0625 4.0625 C-21 2 -21 2 -20 1 C-13.38270607 -0.35353739 -6.72724312 -0.0910454 0 0 Z M-10 6 C-6 7 -6 7 -6 7 Z M-22 9 C-22 11.31 -22 13.62 -22 16 C-21.67 16 -21.34 16 -21 16 C-21 13.69 -21 11.38 -21 9 C-21.33 9 -21.66 9 -22 9 Z M-33 10 C-31.02 10.99 -31.02 10.99 -29 12 C-29 11.34 -29 10.68 -29 10 C-30.32 10 -31.64 10 -33 10 Z M-20 10 C-20 12.97 -20 15.94 -20 19 C-19.67 19 -19.34 19 -19 19 C-19 16.03 -19 13.06 -19 10 C-19.33 10 -19.66 10 -20 10 Z M-12 10 C-12 10.33 -12 10.66 -12 11 C-9.03 11 -6.06 11 -3 11 C-3 10.67 -3 10.34 -3 10 C-5.97 10 -8.94 10 -12 10 Z M-36 12 C-35 14 -35 14 -35 14 Z M-34 12 C-34 12.66 -34 13.32 -34 14 C-33.01 14 -32.02 14 -31 14 C-31 13.34 -31 12.68 -31 12 C-31.99 12 -32.98 12 -34 12 Z M-36 15 C-36 15.33 -36 15.66 -36 16 C-34.35 16 -32.7 16 -31 16 C-31 15.67 -31 15.34 -31 15 C-32.65 15 -34.3 15 -36 15 Z M-23 17 C-23.99 18.485 -23.99 18.485 -25 20 C-24.01 20.33 -23.02 20.66 -22 21 C-21.34 21.66 -20.68 22.32 -20 23 C-20.34444881 20.52733235 -20.34444881 20.52733235 -21 18 C-21.66 17.67 -22.32 17.34 -23 17 Z M-19 19 C-19 20.65 -19 22.3 -19 24 C-18.67 24 -18.34 24 -18 24 C-18 22.35 -18 20.7 -18 19 C-18.33 19 -18.66 19 -19 19 Z M-35 22 C-31 23 -31 23 -31 23 Z M-34 24 C-34 25.98 -34 27.96 -34 30 C-33.67 30 -33.34 30 -33 30 C-33 28.02 -33 26.04 -33 24 C-33.33 24 -33.66 24 -34 24 Z " fill="#43B1EF" transform="translate(217,311)"/>
<path d="M0 0 C4.43775675 0.13861026 8.87512777 0.28711864 13.3125 0.4375 C14.57513672 0.47681641 15.83777344 0.51613281 17.13867188 0.55664062 C18.95141602 0.61948242 18.95141602 0.61948242 20.80078125 0.68359375 C22.47394409 0.73858032 22.47394409 0.73858032 24.1809082 0.79467773 C27 1 27 1 30 2 C31.25 3.875 31.25 3.875 32 6 C30.17707738 11.46876785 27.16002818 15.97384313 24 20.75 C23.54882812 21.44738281 23.09765625 22.14476562 22.6328125 22.86328125 C21.47583732 24.61243603 20.24346766 26.31123649 19 28 C18.34 28 17.68 28 17 28 C16.67 29.65 16.34 31.3 16 33 C16.90363281 33.01417969 17.80726563 33.02835938 18.73828125 33.04296875 C19.91777344 33.09066406 21.09726562 33.13835937 22.3125 33.1875 C23.48425781 33.22230469 24.65601563 33.25710937 25.86328125 33.29296875 C29 34 29 34 30.98046875 36.36328125 C32 39 32 39 31 42 C29.515 42.495 29.515 42.495 28 43 C28 43.66 28 44.32 28 45 C24.68131409 46.02245821 21.81716411 46.04443871 18.359375 45.87890625 C16.75449219 45.80639648 16.75449219 45.80639648 15.1171875 45.73242188 C14.00601562 45.67634766 12.89484375 45.62027344 11.75 45.5625 C10.62335938 45.51029297 9.49671875 45.45808594 8.3359375 45.40429688 C5.55700028 45.27477014 2.77843576 45.13980947 0 45 C-0.495 43.515 -0.495 43.515 -1 42 C-1.33 41.34 -1.66 40.68 -2 40 C-2.13853613 33.48880196 0.98549725 29.90163691 4.85546875 24.8671875 C7.91513943 20.77648025 10.4641474 16.42813655 13 12 C12.67 12.33 12.34 12.66 12 13 C8.27775401 13.29386153 7.22213757 13.14809171 4 11 C2.68 11 1.36 11 0 11 C-1.125 9.3125 -1.125 9.3125 -2 7 C-1.125 4.375 -1.125 4.375 0 2 C0 1.34 0 0.68 0 0 Z " fill="#B6DCF7" transform="translate(244,127)"/>
<path d="M0 0 C1.40668945 0.01450195 1.40668945 0.01450195 2.84179688 0.02929688 C3.81826172 0.05443359 4.79472656 0.07957031 5.80078125 0.10546875 C6.78884766 0.11900391 7.77691406 0.13253906 8.79492188 0.14648438 C11.23492356 0.18184672 13.67382844 0.23119842 16.11328125 0.29296875 C16.11328125 0.95296875 16.11328125 1.61296875 16.11328125 2.29296875 C17.57161483 3.91811343 17.57161483 3.91811343 19.11328125 5.29296875 C19.34015625 4.65359375 19.56703125 4.01421875 19.80078125 3.35546875 C21.11328125 1.29296875 21.11328125 1.29296875 23.73828125 0.54296875 C24.52203125 0.46046875 25.30578125 0.37796875 26.11328125 0.29296875 C27.40286176 4.16171029 27.26120296 7.82534069 27.23828125 11.85546875 C27.23634766 12.66161621 27.23441406 13.46776367 27.23242188 14.29833984 C27.19099935 20.0204017 26.84613473 25.61335427 26.11328125 31.29296875 C23.80328125 31.95296875 21.49328125 32.61296875 19.11328125 33.29296875 C18.78328125 32.63296875 18.45328125 31.97296875 18.11328125 31.29296875 C17.78328125 31.29296875 17.45328125 31.29296875 17.11328125 31.29296875 C16.21078269 26.15206954 16.1334173 21.59570501 16.55078125 16.35546875 C16.60298828 15.67162109 16.65519531 14.98777344 16.70898438 14.28320312 C16.83698023 12.61925706 16.97415844 10.95602145 17.11328125 9.29296875 C16.45328125 9.95296875 15.79328125 10.61296875 15.11328125 11.29296875 C13.79328125 11.29296875 12.47328125 11.29296875 11.11328125 11.29296875 C11.11328125 17.56296875 11.11328125 23.83296875 11.11328125 30.29296875 C2.11328125 31.29296875 2.11328125 31.29296875 0.11328125 30.29296875 C-0.3359375 27.30859375 -0.3359375 27.30859375 -0.57421875 23.54296875 C-0.66058594 22.310625 -0.74695313 21.07828125 -0.8359375 19.80859375 C-0.88017544 16.74596684 -0.63605029 14.24522232 0.11328125 11.29296875 C-1.20671875 10.96296875 -2.52671875 10.63296875 -3.88671875 10.29296875 C-3.22671875 9.96296875 -2.56671875 9.63296875 -1.88671875 9.29296875 C-4.93585103 8.28185782 -4.93585103 8.28185782 -7.88671875 9.29296875 C-8.88671875 6.29296875 -8.88671875 6.29296875 -7.88671875 3.29296875 C-5.53318212 0.16787068 -3.82659591 -0.06957447 0 0 Z M19.11328125 7.29296875 C19.11328125 9.93296875 19.11328125 12.57296875 19.11328125 15.29296875 C19.44328125 15.29296875 19.77328125 15.29296875 20.11328125 15.29296875 C20.11328125 12.65296875 20.11328125 10.01296875 20.11328125 7.29296875 C19.78328125 7.29296875 19.45328125 7.29296875 19.11328125 7.29296875 Z M1.11328125 11.29296875 C1.11328125 15.91296875 1.11328125 20.53296875 1.11328125 25.29296875 C1.44328125 25.29296875 1.77328125 25.29296875 2.11328125 25.29296875 C2.11328125 20.67296875 2.11328125 16.05296875 2.11328125 11.29296875 C1.78328125 11.29296875 1.45328125 11.29296875 1.11328125 11.29296875 Z M9.11328125 11.29296875 C9.11328125 16.57296875 9.11328125 21.85296875 9.11328125 27.29296875 C9.44328125 27.29296875 9.77328125 27.29296875 10.11328125 27.29296875 C10.11328125 22.01296875 10.11328125 16.73296875 10.11328125 11.29296875 C9.78328125 11.29296875 9.45328125 11.29296875 9.11328125 11.29296875 Z " fill="#5AB3E3" transform="translate(249.88671875,306.70703125)"/>
<path d="M0 0 C5.36946345 0.346417 5.36946345 0.346417 8 1 C9.3125 2.8125 9.3125 2.8125 10 5 C10.53625 5.680625 11.0725 6.36125 11.625 7.0625 C13 9 13 9 13 12 C7.25 12.125 7.25 12.125 5 11 C4.01 11.66 3.02 12.32 2 13 C3.41601714 13.48108275 4.83284437 13.95978141 6.25 14.4375 C7.03890625 14.70433594 7.8278125 14.97117187 8.640625 15.24609375 C10.74821988 15.91954708 12.84753973 16.49150595 15 17 C14.71809609 21.15808272 14.42984615 24.14030771 12.5625 27.875 C8.75831634 31.02968889 4.90390529 31.86482344 0 32 C-2.69775118 31.32198112 -4.55026448 30.38463312 -7 29 C-7.66 29.66 -8.32 30.32 -9 31 C-9 28.03 -9 25.06 -9 22 C-7.02 21.34 -5.04 20.68 -3 20 C-3.804375 19.360625 -4.60875 18.72125 -5.4375 18.0625 C-8.69084958 14.1743505 -9.13731591 10.99241409 -9 6 C-8.67 5.34 -8.34 4.68 -8 4 C-6.33678518 3.64984951 -4.66965451 3.31802943 -3 3 C-2.01 2.34 -1.02 1.68 0 1 C0 0.67 0 0.34 0 0 Z M-1 9 C-1 9.33 -1 9.66 -1 10 C0.98 10 2.96 10 5 10 C5 9.67 5 9.34 5 9 C3.02 9 1.04 9 -1 9 Z M-1 23 C-0.67 23.66 -0.34 24.32 0 25 C2.41619823 25.25030977 2.41619823 25.25030977 5 25 C5.66 24.01 6.32 23.02 7 22 C3.37673261 20.7922442 2.35853631 21.45688872 -1 23 Z " fill="#53AFE2" transform="translate(229,307)"/>
<path d="M0 0 C2.22942748 0.14179038 4.45853628 0.28859698 6.6875 0.4375 C7.92886719 0.51871094 9.17023438 0.59992188 10.44921875 0.68359375 C13.38180337 0.94491317 16.13441617 1.34798379 19 2 C19.042721 3.66611905 19.04063832 5.33382885 19 7 C18 8 18 8 14.4375 8.0625 C13.303125 8.041875 12.16875 8.02125 11 8 C13.31 8.33 15.62 8.66 18 9 C16.68 9.99 15.36 10.98 14 12 C14.99 12.33 15.98 12.66 17 13 C17.042721 14.66611905 17.04063832 16.33382885 17 18 C15.41727399 19.58272601 13.61965997 19.34735747 11.4375 19.5625 C10.19806641 19.68818359 10.19806641 19.68818359 8.93359375 19.81640625 C8.29550781 19.87699219 7.65742188 19.93757813 7 20 C7.20625 20.763125 7.4125 21.52625 7.625 22.3125 C8 25 8 25 6 28 C5 29 5 29 2 29.125 C-1 29 -1 29 -2 28 C-2.73134349 18.5945826 -1.31985708 9.28613734 0 0 Z " fill="#52B0E4" transform="translate(281,310)"/>
<path d="M0 0 C3.3125 0.0625 3.3125 0.0625 7 1 C8.59040839 3.28141342 9.16506544 5.29874113 10 8 C13.14191424 6.46395304 16.08596738 4.94268841 19 3 C21.73990408 3.03143293 24.28417854 3.55478337 27 4 C26.625 5.9375 26.625 5.9375 26 8 C25.01 8.495 25.01 8.495 24 9 C23.67 9.99 23.34 10.98 23 12 C22.01 12.495 22.01 12.495 21 13 C20.67 13.99 20.34 14.98 20 16 C19.01 16.66 18.02 17.32 17 18 C16.27034634 20.56282742 16.27034634 20.56282742 16 23 C15.34 23 14.68 23 14 23 C13.8453125 24.670625 13.8453125 24.670625 13.6875 26.375 C13.460625 27.57125 13.23375 28.7675 13 30 C10 32 10 32 6 32 C5.10295101 28.63606629 5.00813384 25.63505183 5.125 22.1875 C5.20076326 17.13409064 4.04253862 13.5957119 2 9 C1.34 9 0.68 9 0 9 C-1.125 3.375 -1.125 3.375 0 0 Z M0 4 C1 6 1 6 1 6 Z " fill="#51B0E5" transform="translate(302,312)"/>
<path d="M0 0 C3.3 0 6.6 0 10 0 C10.87890625 6.93359375 10.87890625 6.93359375 11 9 C8.95301586 11.04698414 4.69588759 10.70045693 2 11 C3.16732896 12.37077501 3.16732896 12.37077501 6.375 12.4375 C10 13 10 13 13 15 C13.25 17.5625 13.25 17.5625 13 20 C11.41727399 21.58272601 9.61965997 21.34735747 7.4375 21.5625 C6.19806641 21.68818359 6.19806641 21.68818359 4.93359375 21.81640625 C4.29550781 21.87699219 3.65742188 21.93757813 3 22 C3 22.66 3 23.32 3 24 C0.03 24 -2.94 24 -6 24 C-6.66 22.68 -7.32 21.36 -8 20 C-8 20.99 -8 21.98 -8 23 C-15.42857143 23.14285714 -15.42857143 23.14285714 -19 22 C-19.33 20.68 -19.66 19.36 -20 18 C-20.185625 18.94875 -20.37125 19.8975 -20.5625 20.875 C-22 24 -22 24 -25.625 25.375 C-26.73875 25.58125 -27.8525 25.7875 -29 26 C-29.33 24.35 -29.66 22.7 -30 21 C-29.34 20.67 -28.68 20.34 -28 20 C-28 20.99 -28 21.98 -28 23 C-27.01 23 -26.02 23 -25 23 C-25 20.36 -25 17.72 -25 15 C-23.35 15.33 -21.7 15.66 -20 16 C-20 15.34 -20 14.68 -20 14 C-19.34 14 -18.68 14 -18 14 C-17.0409375 15.4540625 -17.0409375 15.4540625 -16.0625 16.9375 C-14.28938993 20.24255225 -14.28938993 20.24255225 -11 21 C-12.65 18.69 -14.3 16.38 -16 14 C-15.67 13.34 -15.34 12.68 -15 12 C-13.35 12.66 -11.7 13.32 -10 14 C-9.34 13.34 -8.68 12.68 -8 12 C-8 13.65 -8 15.3 -8 17 C-7.34 17 -6.68 17 -6 17 C-6 17.99 -6 18.98 -6 20 C2.415 19.505 2.415 19.505 11 19 C11 18.34 11 17.68 11 17 C9.73542969 17.05220703 9.73542969 17.05220703 8.4453125 17.10546875 C7.34960938 17.13253906 6.25390625 17.15960938 5.125 17.1875 C3.48917969 17.23970703 3.48917969 17.23970703 1.8203125 17.29296875 C0.88960937 17.19628906 -0.04109375 17.09960938 -1 17 C-3 14 -3 14 -2.625 11.3125 C-2.315625 10.1678125 -2.315625 10.1678125 -2 9 C0.97 8.34 3.94 7.68 7 7 C4.69 6.67 2.38 6.34 0 6 C0 5.67 0 5.34 0 5 C2.64 5 5.28 5 8 5 C8 4.34 8 3.68 8 3 C5.36 3 2.72 3 0 3 C0 2.01 0 1.02 0 0 Z M-23 17 C-23 18.98 -23 20.96 -23 23 C-22.67 23 -22.34 23 -22 23 C-22 21.02 -22 19.04 -22 17 C-22.33 17 -22.66 17 -23 17 Z " fill="#53B2E5" transform="translate(206,318)"/>
<path d="M0 0 C2.97 0 5.94 0 9 0 C9 0.33 9 0.66 9 1 C11.64 1.33 14.28 1.66 17 2 C17.74019247 4.6646929 18.19939377 6.40181868 17.3125 9.0625 C15.76524253 11.34654675 14.00910476 13.11265916 12 15 C11.13375 15.86625 11.13375 15.86625 10.25 16.75 C9.8375 17.1625 9.425 17.575 9 18 C11.64 18 14.28 18 17 18 C17.93423645 21.01031744 18.04449911 21.86650268 17 25 C14.56183415 25.0809723 12.12635616 25.14046972 9.6875 25.1875 C8.65206055 25.22520508 8.65206055 25.22520508 7.59570312 25.26367188 C2.49660144 25.3375719 2.49660144 25.3375719 0.01171875 23.6484375 C-1 22 -1 22 -0.875 19.4375 C0 17 0 17 3 15 C4.20450304 12.44816596 4.20450304 12.44816596 5 10 C4.01 9.34 3.02 8.68 2 8 C4.31 8 6.62 8 9 8 C6.69 7.67 4.38 7.34 2 7 C1.34 4.69 0.68 2.38 0 0 Z " fill="#B9DBF4" transform="translate(204,167)"/>
<path d="M0 0 C1.06347656 -0.00257813 2.12695312 -0.00515625 3.22265625 -0.0078125 C5.9375 0.125 5.9375 0.125 7.9375 1.125 C8.125 4.5 8.125 4.5 7.9375 8.125 C6.9475 8.785 5.9575 9.445 4.9375 10.125 C4.6075 11.115 4.2775 12.105 3.9375 13.125 C2.9475 13.62 2.9475 13.62 1.9375 14.125 C3.5875 14.455 5.2375 14.785 6.9375 15.125 C7.31883299 17.1164056 7.65075582 19.11779077 7.9375 21.125 C6.9375 22.125 6.9375 22.125 3.55859375 22.22265625 C2.16402923 22.21598369 0.76948257 22.20402532 -0.625 22.1875 C-1.33591797 22.18298828 -2.04683594 22.17847656 -2.77929688 22.17382812 C-4.54040013 22.16200864 -6.30146036 22.14407263 -8.0625 22.125 C-8.7225 19.815 -9.3825 17.505 -10.0625 15.125 C-9.4025 15.125 -8.7425 15.125 -8.0625 15.125 C-7.7325 14.135 -7.4025 13.145 -7.0625 12.125 C-6.0725 11.795 -5.0825 11.465 -4.0625 11.125 C-5.02115509 8.79424071 -5.02115509 8.79424071 -8.0625 7.125 C-5.7525 7.125 -3.4425 7.125 -1.0625 7.125 C-3.3725 6.795 -5.6825 6.465 -8.0625 6.125 C-8.3925 4.475 -8.7225 2.825 -9.0625 1.125 C-5.82377868 0.04542623 -3.40221795 -0.00826784 0 0 Z " fill="#B9DBF4" transform="translate(232.0625,153.875)"/>
<path d="M0 0 C0 1.65 0 3.3 0 5 C-0.495 3.515 -0.495 3.515 -1 2 C-6.61 2.66 -12.22 3.32 -18 4 C-17.67 8.95 -17.34 13.9 -17 19 C-19.64 18.67 -22.28 18.34 -25 18 C-24.97679687 17.37351562 -24.95359375 16.74703125 -24.9296875 16.1015625 C-24.91164062 15.28429687 -24.89359375 14.46703125 -24.875 13.625 C-24.85179687 12.81289063 -24.82859375 12.00078125 -24.8046875 11.1640625 C-24.78629949 8.78657757 -24.78629949 8.78657757 -27 7 C-29.56916657 6.69400937 -32.04758384 6.48912913 -34.625 6.375 C-35.33140625 6.33632813 -36.0378125 6.29765625 -36.765625 6.2578125 C-38.50998524 6.16352276 -40.25495691 6.08067109 -42 6 C-42 8.31 -42 10.62 -42 13 C-41.34 13 -40.68 13 -40 13 C-40.14179038 15.22942748 -40.28859698 17.45853628 -40.4375 19.6875 C-40.51871094 20.92886719 -40.59992188 22.17023438 -40.68359375 23.44921875 C-40.94491317 26.38180337 -41.34798379 29.13441617 -42 32 C-42.33 32 -42.66 32 -43 32 C-42.98839844 31.13117188 -42.97679687 30.26234375 -42.96484375 29.3671875 C-42.95582031 28.21476562 -42.94679687 27.06234375 -42.9375 25.875 C-42.92589844 24.73804688 -42.91429687 23.60109375 -42.90234375 22.4296875 C-42.99486345 19.1803956 -43.43319908 16.19429669 -44 13 C-44.15587429 10.29970719 -44.09191363 7.71145222 -44 5 C-42.0237237 3.0237237 -38.45116151 3.45856426 -35.75 3.25 C-35.08097656 3.18167969 -34.41195312 3.11335938 -33.72265625 3.04296875 C-29.1899242 2.69566708 -26.63458594 3.26701677 -23 6 C-22.690625 5.360625 -22.38125 4.72125 -22.0625 4.0625 C-21 2 -21 2 -20 1 C-13.38270607 -0.35353739 -6.72724312 -0.0910454 0 0 Z M-22 9 C-22 11.31 -22 13.62 -22 16 C-21.67 16 -21.34 16 -21 16 C-21 13.69 -21 11.38 -21 9 C-21.33 9 -21.66 9 -22 9 Z " fill="#57B2E4" transform="translate(217,311)"/>
<path d="M0 0 C1.67542976 0.28604898 3.34385343 0.61781233 5 1 C5.10094304 9.41192037 5.10102642 17.64399592 4 26 C1.69 26.66 -0.62 27.32 -3 28 C-3.37506717 8.68404084 -3.37506717 8.68404084 -1 1 C-0.67 0.67 -0.34 0.34 0 0 Z " fill="#4FB1E8" transform="translate(272,312)"/>
<path d="M0 0 C1.7290774 -0.02725341 3.45828176 -0.04650987 5.1875 -0.0625 C6.15042969 -0.07410156 7.11335938 -0.08570313 8.10546875 -0.09765625 C10.90753068 -0.00311975 13.31516672 0.18852189 16 1 C16.66 1.99 17.32 2.98 18 4 C17.34 4.66 16.68 5.32 16 6 C14.68 6 13.36 6 12 6 C12 12.27 12 18.54 12 25 C6 24 6 24 5 23 C4.84313751 21.44051458 4.74923361 19.87457332 4.68359375 18.30859375 C4.64169922 17.36435547 4.59980469 16.42011719 4.55664062 15.44726562 C4.51732422 14.45404297 4.47800781 13.46082031 4.4375 12.4375 C4.39431641 11.44041016 4.35113281 10.44332031 4.30664062 9.41601562 C4.20019702 6.9441585 4.09818072 4.4721969 4 2 C2.68 1.34 1.36 0.68 0 0 Z M10 6 C10 11.28 10 16.56 10 22 C10.33 22 10.66 22 11 22 C11 16.72 11 11.44 11 6 C10.67 6 10.34 6 10 6 Z " fill="#53B3E7" transform="translate(249,312)"/>
<path d="M0 0 C2 1.5 2 1.5 3 3 C2.01 3.33 1.02 3.66 0 4 C-0.33 3.67 -0.66 3.34 -1 3 C-3.33297433 2.95907063 -5.66705225 2.95758277 -8 3 C-8.33 4.65 -8.66 6.3 -9 8 C-5.81848831 10.12100779 -3.50093369 10.67392072 0.16015625 11.4375 C2 12 2 12 4 14 C4.56246663 20.18713294 4.56246663 20.18713294 2.82421875 22.69921875 C0.31921641 24.48544097 -1.44814576 24.39961173 -4.5 24.375 C-5.4590625 24.38273437 -6.418125 24.39046875 -7.40625 24.3984375 C-10 24 -10 24 -11.84375 22.6015625 C-13 21 -13 21 -13 19 C-12.38125 19.165 -11.7625 19.33 -11.125 19.5 C-7.27093613 20.40683856 -4.68999854 19.28347775 -1 18 C-1.66 17.01 -2.32 16.02 -3 15 C-2.67 14.67 -2.34 14.34 -2 14 C-2.62648437 13.80664062 -3.25296875 13.61328125 -3.8984375 13.4140625 C-4.71570313 13.15367187 -5.53296875 12.89328125 -6.375 12.625 C-7.59316406 12.24214844 -7.59316406 12.24214844 -8.8359375 11.8515625 C-11 11 -11 11 -13 9 C-13.4375 6.0625 -13.4375 6.0625 -13 3 C-9.05898393 -0.69470257 -5.10399214 -0.49393472 0 0 Z " fill="#41B1F2" transform="translate(236,312)"/>
<path d="M0 0 C1.40668945 0.01450195 1.40668945 0.01450195 2.84179688 0.02929688 C3.81826172 0.05443359 4.79472656 0.07957031 5.80078125 0.10546875 C6.78884766 0.11900391 7.77691406 0.13253906 8.79492188 0.14648438 C11.23492356 0.18184672 13.67382844 0.23119842 16.11328125 0.29296875 C16.11328125 0.95296875 16.11328125 1.61296875 16.11328125 2.29296875 C17.57161483 3.91811343 17.57161483 3.91811343 19.11328125 5.29296875 C19.34015625 4.65359375 19.56703125 4.01421875 19.80078125 3.35546875 C21.11328125 1.29296875 21.11328125 1.29296875 23.73828125 0.54296875 C24.52203125 0.46046875 25.30578125 0.37796875 26.11328125 0.29296875 C27.11328125 3.29296875 27.11328125 3.29296875 27.11328125 6.29296875 C26.32953125 6.25171875 25.54578125 6.21046875 24.73828125 6.16796875 C21.95212006 6.00568141 21.95212006 6.00568141 20.11328125 8.29296875 C19.64948044 10.71232903 19.64948044 10.71232903 19.48046875 13.51953125 C19.39667969 14.55078125 19.31289063 15.58203125 19.2265625 16.64453125 C19.10861328 18.26488281 19.10861328 18.26488281 18.98828125 19.91796875 C18.90191406 21.0059375 18.81554687 22.09390625 18.7265625 23.21484375 C18.51402168 25.90702752 18.30995693 28.59958703 18.11328125 31.29296875 C17.78328125 31.29296875 17.45328125 31.29296875 17.11328125 31.29296875 C16.09446455 25.87115398 16.24967654 21.29402433 17.05078125 15.85546875 C17.15068359 15.12392578 17.25058594 14.39238281 17.35351562 13.63867188 C17.59825358 11.85558106 17.85455978 10.07408433 18.11328125 8.29296875 C15.14328125 8.29296875 12.17328125 8.29296875 9.11328125 8.29296875 C9.11328125 7.96296875 9.11328125 7.63296875 9.11328125 7.29296875 C11.09328125 7.29296875 13.07328125 7.29296875 15.11328125 7.29296875 C15.11328125 6.30296875 15.11328125 5.31296875 15.11328125 4.29296875 C8.51328125 3.96296875 1.91328125 3.63296875 -4.88671875 3.29296875 C-4.88671875 4.94296875 -4.88671875 6.59296875 -4.88671875 8.29296875 C-5.87671875 8.62296875 -6.86671875 8.95296875 -7.88671875 9.29296875 C-8.88671875 6.29296875 -8.88671875 6.29296875 -7.88671875 3.29296875 C-5.53318212 0.16787068 -3.82659591 -0.06957447 0 0 Z " fill="#74BEE8" transform="translate(249.88671875,306.70703125)"/>
<path d="M0 0 C5.97610855 0.55591707 8.85555065 2.85555065 13 7 C13 7.99 13 8.98 13 10 C13.32597168 11.01779541 13.65194336 12.03559082 13.98779297 13.08422852 C15.32887158 17.60354958 15.25146424 21.97041151 15.1953125 26.65234375 C15.1924826 27.55247696 15.18965271 28.45261017 15.18673706 29.38002014 C15.17561278 32.2326532 15.15052283 35.08496311 15.125 37.9375 C15.11496017 39.88085482 15.10583608 41.82421459 15.09765625 43.76757812 C15.07569888 48.51184176 15.04122301 53.25586624 15 58 C14.01 58 13.02 58 12 58 C12.01047363 56.76435303 12.02094727 55.52870605 12.03173828 54.25561523 C12.06806797 49.65050173 12.09094759 45.04540079 12.10986328 40.44018555 C12.11989136 38.45090603 12.13351717 36.46164114 12.15087891 34.47241211 C12.17526791 31.60526915 12.18651526 28.7383219 12.1953125 25.87109375 C12.20563507 24.98852402 12.21595764 24.10595428 12.22659302 23.19664001 C12.2277085 16.99132531 11.94878478 10.61504429 7.6875 5.6875 C5.1103862 3.1103862 3.4578025 1.98794357 0 1 C0 0.67 0 0.34 0 0 Z " fill="#B6DAF2" transform="translate(323,211)"/>
<path d="M0 0 C0.99 0 1.98 0 3 0 C3.15855469 0.56589844 3.31710937 1.13179688 3.48046875 1.71484375 C4.18581705 3.93220942 4.89153152 5.95193129 6 8 C8.57080135 9.13440778 8.57080135 9.13440778 11 9 C11.33773438 8.4946875 11.67546875 7.989375 12.0234375 7.46875 C12.46945312 6.8190625 12.91546875 6.169375 13.375 5.5 C13.81585938 4.8503125 14.25671875 4.200625 14.7109375 3.53125 C15.13632812 3.0259375 15.56171875 2.520625 16 2 C16.66 2 17.32 2 18 2 C17.45276317 5.37462715 16.9451 7.08235 15 10 C14.01 10 13.02 10 12 10 C11.87625 10.78375 11.7525 11.5675 11.625 12.375 C11 15 11 15 9 17 C8.54188325 18.97235333 8.54188325 18.97235333 8.375 21.125 C8.25125 22.40375 8.1275 23.6825 8 25 C7.01 25 6.02 25 5 25 C5.05800781 24.41734375 5.11601562 23.8346875 5.17578125 23.234375 C5.54870123 16.4578862 3.96304703 11.67960298 1.09375 5.56640625 C0 3 0 3 0 0 Z " fill="#3FB2F4" transform="translate(305,315)"/>
<path d="M0 0 C3.3 0 6.6 0 10 0 C10.87890625 6.93359375 10.87890625 6.93359375 11 9 C8.95301586 11.04698414 4.69588759 10.70045693 2 11 C3.96822886 12.96822886 7.34808709 12.66248381 10 13 C10 13.99 10 14.98 10 16 C6.37 16.33 2.74 16.66 -1 17 C-3 14 -3 14 -2.625 11.3125 C-2.41875 10.549375 -2.2125 9.78625 -2 9 C0.97 8.34 3.94 7.68 7 7 C4.69 6.67 2.38 6.34 0 6 C0 5.67 0 5.34 0 5 C2.64 5 5.28 5 8 5 C8 4.34 8 3.68 8 3 C5.36 3 2.72 3 0 3 C0 2.01 0 1.02 0 0 Z " fill="#5FB9EB" transform="translate(206,318)"/>
<path d="M0 0 C1.58294782 -0.05437607 3.16644256 -0.09296271 4.75 -0.125 C5.63171875 -0.14820313 6.5134375 -0.17140625 7.421875 -0.1953125 C10.1135858 0.00860498 11.69904974 0.63448279 14 2 C13.28972656 2.06058594 12.57945312 2.12117188 11.84765625 2.18359375 C10.92855469 2.26738281 10.00945312 2.35117187 9.0625 2.4375 C7.68771484 2.55931641 7.68771484 2.55931641 6.28515625 2.68359375 C4.03840268 2.76044976 4.03840268 2.76044976 3 4 C2.95907063 6.33297433 2.95758277 8.66705225 3 11 C5.64 11.33 8.28 11.66 11 12 C11 12.33 11 12.66 11 13 C9.6078125 13.1546875 9.6078125 13.1546875 8.1875 13.3125 C4.85953963 14.03029537 3.88737731 14.2633029 2 17 C0.79950593 20.10007201 0.79950593 20.10007201 0 23 C-0.66 23 -1.32 23 -2 23 C-2.35699374 4.71398747 -2.35699374 4.71398747 0 0 Z " fill="#3FB2F4" transform="translate(283,313)"/>
<path d="M0 0 C31.02 0 62.04 0 94 0 C94.495 0.99 94.495 0.99 95 2 C63.65 1.67 32.3 1.34 0 1 C0 0.67 0 0.34 0 0 Z " fill="#B5DEFB" transform="translate(230,207)"/>
<path d="M0 0 C0.99 0 1.98 0 3 0 C3.33 2.97 3.66 5.94 4 9 C5.65 9.33 7.3 9.66 9 10 C6 12 6 12 4 13 C4.33 14.98 4.66 16.96 5 19 C8.96 19.33 12.92 19.66 17 20 C17 20.66 17 21.32 17 22 C11.72 22 6.44 22 1 22 C0.67 14.74 0.34 7.48 0 0 Z " fill="#3DB2F6" transform="translate(200,315)"/>
<path d="M0 0 C3.63 0 7.26 0 11 0 C10.34 0.66 9.68 1.32 9 2 C8.62995706 4.22658154 8.62995706 4.22658154 8.5859375 6.7890625 C8.52792969 8.20058594 8.52792969 8.20058594 8.46875 9.640625 C8.42234375 11.11789062 8.42234375 11.11789062 8.375 12.625 C8.31699219 14.11386719 8.31699219 14.11386719 8.2578125 15.6328125 C8.1633686 18.08835385 8.07780125 20.5438841 8 23 C7.01 23 6.02 23 5 23 C4.67 16.07 4.34 9.14 4 2 C2.68 1.34 1.36 0.68 0 0 Z " fill="#3FB2F4" transform="translate(249,312)"/>
<path d="M0 0 C1.8125 1.1875 1.8125 1.1875 3 3 C3.4375 5.5 3.4375 5.5 3 8 C0.65683211 10.61353342 -0.67214774 10.9742861 -4.1875 11.25 C-7 11 -7 11 -8 10 C-8.04092937 7.66702567 -8.04241723 5.33294775 -8 3 C-7.01 3 -6.02 3 -5 3 C-5.66 2.34 -6.32 1.68 -7 1 C-4.45132831 -0.27433584 -2.82594567 -0.27570202 0 0 Z M-3 3 C-1.02 3.99 -1.02 3.99 1 5 C1 4.34 1 3.68 1 3 C-0.32 3 -1.64 3 -3 3 Z M-6 5 C-5 7 -5 7 -5 7 Z M-4 5 C-4 5.66 -4 6.32 -4 7 C-3.01 7 -2.02 7 -1 7 C-1 6.34 -1 5.68 -1 5 C-1.99 5 -2.98 5 -4 5 Z M-6 8 C-6 8.33 -6 8.66 -6 9 C-4.35 9 -2.7 9 -1 9 C-1 8.67 -1 8.34 -1 8 C-2.65 8 -4.3 8 -6 8 Z " fill="#4BB1E9" transform="translate(187,318)"/>
<path d="M0 0 C0.66 0 1.32 0 2 0 C2.09377123 7.41834582 2.17402193 14.66236293 1 22 C0.34 22 -0.32 22 -1 22 C-1.02895225 18.70835171 -1.0467823 15.41673601 -1.0625 12.125 C-1.07506836 10.71927734 -1.07506836 10.71927734 -1.08789062 9.28515625 C-1.09111328 8.38925781 -1.09433594 7.49335938 -1.09765625 6.5703125 C-1.10289307 5.74289551 -1.10812988 4.91547852 -1.11352539 4.06298828 C-1 2 -1 2 0 0 Z " fill="#3EB2F5" transform="translate(273,313)"/>
<path d="M0 0 C0.99 0.33 1.98 0.66 3 1 C2.67 1.33 2.34 1.66 2 2 C1.63239269 4.32817964 1.29758419 6.6618385 1 9 C1.66 9 2.32 9 3 9 C2.85820962 11.22942748 2.71140302 13.45853628 2.5625 15.6875 C2.48128906 16.92886719 2.40007812 18.17023438 2.31640625 19.44921875 C2.05508683 22.38180337 1.65201621 25.13441617 1 28 C0.67 28 0.34 28 0 28 C0.01160156 27.13117188 0.02320313 26.26234375 0.03515625 25.3671875 C0.04417969 24.21476562 0.05320313 23.06234375 0.0625 21.875 C0.07410156 20.73804688 0.08570313 19.60109375 0.09765625 18.4296875 C0.00513655 15.1803956 -0.43319908 12.19429669 -1 9 C-1.15587429 6.29970719 -1.09191363 3.71145222 -1 1 C-0.67 0.67 -0.34 0.34 0 0 Z " fill="#5AB5E9" transform="translate(174,315)"/>
<path d="M0 0 C1.2065625 0.0309375 1.2065625 0.0309375 2.4375 0.0625 C2.7675 0.7225 3.0975 1.3825 3.4375 2.0625 C5.75906597 2.46979228 8.0943787 2.80688677 10.4375 3.0625 C8.61001097 5.52563739 7.20773784 6.89678618 4.16796875 7.55078125 C1.92270654 7.78768293 -0.30705578 7.96611349 -2.5625 8.0625 C-2.94313221 5.7364143 -3.27519945 3.40194736 -3.5625 1.0625 C-2.5625 0.0625 -2.5625 0.0625 0 0 Z " fill="#60B9EA" transform="translate(288.5625,315.9375)"/>
<path d="M0 0 C0.042721 1.66611905 0.04063832 3.33382885 0 5 C-1 6 -1 6 -4.81640625 6.09765625 C-6.39846682 6.09098089 -7.98051159 6.07901875 -9.5625 6.0625 C-10.36880859 6.05798828 -11.17511719 6.05347656 -12.00585938 6.04882812 C-14.00393756 6.03700518 -16.00197783 6.01906914 -18 6 C-18 5.67 -18 5.34 -18 5 C-10.08 4.505 -10.08 4.505 -2 4 C-2 3.34 -2 2.68 -2 2 C-5.3 2 -8.6 2 -12 2 C-12 1.67 -12 1.34 -12 1 C-10.56274129 0.83126522 -9.12518162 0.66509263 -7.6875 0.5 C-6.88699219 0.4071875 -6.08648437 0.314375 -5.26171875 0.21875 C-3 0 -3 0 0 0 Z " fill="#50ADDF" transform="translate(219,333)"/>
<path d="M0 0 C0.3403125 0.8971875 0.3403125 0.8971875 0.6875 1.8125 C3.60543469 6.67572449 8.78140016 7.66976867 14 9 C11.60490662 11.89932357 9.68754757 12.50168276 6 13 C5.773125 12.4225 5.54625 11.845 5.3125 11.25 C3.66961977 8.4336339 1.60466773 6.91922886 -1 5 C-0.67 3.35 -0.34 1.7 0 0 Z " fill="#52B0E4" transform="translate(222,317)"/>
<path d="M0 0 C0.33 0 0.66 0 1 0 C1.33 13.86 1.66 27.72 2 42 C1.34 41.67 0.68 41.34 0 41 C0 27.47 0 13.94 0 0 Z " fill="#B6D9F0" transform="translate(339,228)"/>
<path d="M0 0 C0.33 0 0.66 0 1 0 C1 1.65 1 3.3 1 5 C1.66 5 2.32 5 3 5 C3.33 5.99 3.66 6.98 4 8 C6.64 8.33 9.28 8.66 12 9 C12 9.99 12 10.98 12 12 C9.03 12 6.06 12 3 12 C2.731875 11.21625 2.46375 10.4325 2.1875 9.625 C1.15185568 6.71885077 1.15185568 6.71885077 -2 5 C-1.34 3.35 -0.68 1.7 0 0 Z " fill="#5EB5E3" transform="translate(197,330)"/>
<path d="M0 0 C2.31 0.33 4.62 0.66 7 1 C6.67 1.99 6.34 2.98 6 4 C5.01 3.67 4.02 3.34 3 3 C3.309375 3.928125 3.309375 3.928125 3.625 4.875 C3.74875 5.57625 3.8725 6.2775 4 7 C3.34 7.66 2.68 8.32 2 9 C1.34 9 0.68 9 0 9 C-1.125 3.375 -1.125 3.375 0 0 Z M0 4 C1 6 1 6 1 6 Z " fill="#62B2DE" transform="translate(302,312)"/>
<path d="M0 0 C0 3.11257569 -0.17361624 5.10765685 -1 8 C-2.32 8 -3.64 8 -5 8 C-4.95875 7.21625 -4.9175 6.4325 -4.875 5.625 C-4.71271266 2.83883881 -4.71271266 2.83883881 -7 1 C-4.53721199 -0.231394 -2.7204945 -0.07159196 0 0 Z M-4 5 C-4 5.66 -4 6.32 -4 7 C-3.01 7 -2.02 7 -1 7 C-1 6.34 -1 5.68 -1 5 C-1.99 5 -2.98 5 -4 5 Z " fill="#5BB8ED" transform="translate(187,318)"/>
<path d="M0 0 C1.4606285 2.64738916 2 3.89448334 2 7 C0.02 7.33 -1.96 7.66 -4 8 C-4.33 6.35 -4.66 4.7 -5 3 C-4.34 2.67 -3.68 2.34 -3 2 C-3 2.99 -3 3.98 -3 5 C-2.01 5 -1.02 5 0 5 C0 3.35 0 1.7 0 0 Z " fill="#57AEDC" transform="translate(181,336)"/>
<path d="M0 0 C2 2 2 2 2 6 C1.21625 5.95875 0.4325 5.9175 -0.375 5.875 C-3.16116119 5.71271266 -3.16116119 5.71271266 -5 8 C-5.125 3.25 -5.125 3.25 -4 1 C-2.0625 0.25 -2.0625 0.25 0 0 Z " fill="#6CB7DD" transform="translate(275,307)"/>
<path d="M0 0 C9.24 0 18.48 0 28 0 C28 0.33 28 0.66 28 1 C18.76 1 9.52 1 0 1 C0 0.67 0 0.34 0 0 Z " fill="#B6DAF4" transform="translate(236,296)"/>
<path d="M0 0 C2.64 0.33 5.28 0.66 8 1 C8 1.99 8 2.98 8 4 C4.37 4 0.74 4 -3 4 C-2.01 3.01 -1.02 2.02 0 1 C0 0.67 0 0.34 0 0 Z " fill="#71C1EF" transform="translate(229,307)"/>
<path d="M0 0 C8.25 0.33 16.5 0.66 25 1 C25 1.33 25 1.66 25 2 C16.75 2 8.5 2 0 2 C0 1.34 0 0.68 0 0 Z " fill="#BADEF6" transform="translate(247,125)"/>
<path d="M0 0 C0.33 0 0.66 0 1 0 C1 7.59 1 15.18 1 23 C0.67 23 0.34 23 0 23 C0 15.41 0 7.82 0 0 Z " fill="#ACDAFA" transform="translate(340,325)"/>
<path d="M0 0 C3.63 0 7.26 0 11 0 C11 1.65 11 3.3 11 5 C10.01 5 9.02 5 8 5 C8 3.68 8 2.36 8 1 C5.36 1 2.72 1 0 1 C0 0.67 0 0.34 0 0 Z " fill="#57ABD6" transform="translate(287,323)"/>
<path d="M0 0 C7.26 0 14.52 0 22 0 C22 0.33 22 0.66 22 1 C14.74 1 7.48 1 0 1 C0 0.67 0 0.34 0 0 Z " fill="#ADD4EC" transform="translate(134,351)"/>
<path d="M0 0 C2.64 0.33 5.28 0.66 8 1 C7.67 2.32 7.34 3.64 7 5 C5.68 5 4.36 5 3 5 C3 3.68 3 2.36 3 1 C2.01 0.67 1.02 0.34 0 0 Z " fill="#64B3DF" transform="translate(321,315)"/>
<path d="M0 0 C3.3 0 6.6 0 10 0 C10 1.32 10 2.64 10 4 C8.68 3.67 7.36 3.34 6 3 C6.33 2.67 6.66 2.34 7 2 C4.69 1.67 2.38 1.34 0 1 C0 0.67 0 0.34 0 0 Z " fill="#53AAD8" transform="translate(206,323)"/>
<path d="M0 0 C0.66 0 1.32 0 2 0 C1.67 4.95 1.34 9.9 1 15 C0.67 15 0.34 15 0 15 C0 10.05 0 5.1 0 0 Z " fill="#6EBBE8" transform="translate(278,311)"/>
<path d="M0 0 C1.43739513 -0.02712066 2.87493863 -0.04645067 4.3125 -0.0625 C5.51326172 -0.07990234 5.51326172 -0.07990234 6.73828125 -0.09765625 C9 0 9 0 12 1 C12 1.66 12 2.32 12 3 C8.875 2.47916667 5.75 1.95833333 2.625 1.4375 C1.75875 1.293125 0.8925 1.14875 0 1 C0 0.67 0 0.34 0 0 Z " fill="#B8DAF3" transform="translate(305,297)"/>
<path d="M0 0 C5.94 0 11.88 0 18 0 C18 0.33 18 0.66 18 1 C12.06 1 6.12 1 0 1 C0 0.67 0 0.34 0 0 Z " fill="#B3D9F2" transform="translate(217,297)"/>
<path d="M0 0 C0.33 0 0.66 0 1 0 C1 1.65 1 3.3 1 5 C1.66 5 2.32 5 3 5 C3.33 6.32 3.66 7.64 4 9 C3.01 9.495 3.01 9.495 2 10 C1.34 9.01 0.68 8.02 0 7 C-0.66 6.34 -1.32 5.68 -2 5 C-1.34 3.35 -0.68 1.7 0 0 Z " fill="#68BAE8" transform="translate(197,330)"/>
<path d="M0 0 C5.61 0 11.22 0 17 0 C17 0.33 17 0.66 17 1 C11.39 1 5.78 1 0 1 C0 0.67 0 0.34 0 0 Z " fill="#B3D8F1" transform="translate(264,297)"/>
<path d="M0 0 C4.95 0 9.9 0 15 0 C15 0.33 15 0.66 15 1 C10.05 1 5.1 1 0 1 C0 0.67 0 0.34 0 0 Z " fill="#BADBF5" transform="translate(224,177)"/>
<path d="M0 0 C3.96 0 7.92 0 12 0 C12 0.33 12 0.66 12 1 C8.04 1 4.08 1 0 1 C0 0.67 0 0.34 0 0 Z " fill="#97D1F6" transform="translate(204,309)"/>
<path d="M0 0 C3.63 0 7.26 0 11 0 C10.34 0.66 9.68 1.32 9 2 C6.8359375 1.9765625 6.8359375 1.9765625 4.375 1.625 C3.55773437 1.51414063 2.74046875 1.40328125 1.8984375 1.2890625 C1.27195313 1.19367188 0.64546875 1.09828125 0 1 C0 0.67 0 0.34 0 0 Z " fill="#B9DDF7" transform="translate(226,152)"/>
<path d="M0 0 C3.63 0 7.26 0 11 0 C11 0.33 11 0.66 11 1 C7.37 1 3.74 1 0 1 C0 0.67 0 0.34 0 0 Z " fill="#95D0F5" transform="translate(285,309)"/>
<path d="M0 0 C3.3 0.33 6.6 0.66 10 1 C10 1.33 10 1.66 10 2 C6.7 1.67 3.4 1.34 0 1 C0 0.67 0 0.34 0 0 Z " fill="#B4DAF4" transform="translate(326,303)"/>
<path d="M0 0 C3.63 0 7.26 0 11 0 C11 0.33 11 0.66 11 1 C7.37 1 3.74 1 0 1 C0 0.67 0 0.34 0 0 Z " fill="#B6DBF4" transform="translate(261,159)"/>
<path d="M0 0 C0.33 0 0.66 0 1 0 C1 3.3 1 6.6 1 10 C0.67 10 0.34 10 0 10 C0 6.7 0 3.4 0 0 Z " fill="#66BBEA" transform="translate(277,328)"/>
<path d="M0 0 C2.97 0 5.94 0 9 0 C9 0.33 9 0.66 9 1 C5.625 1.625 5.625 1.625 2 2 C1.34 1.34 0.68 0.68 0 0 Z " fill="#B4D9F5" transform="translate(304,300)"/>
<path d="M0 0 C2.97 0 5.94 0 9 0 C9 0.33 9 0.66 9 1 C6.03 1 3.06 1 0 1 C0 0.67 0 0.34 0 0 Z " fill="#5EB4E4" transform="translate(209,340)"/>
<path d="M0 0 C2.97 0 5.94 0 9 0 C9 0.33 9 0.66 9 1 C6.03 1 3.06 1 0 1 C0 0.67 0 0.34 0 0 Z " fill="#B5DAF4" transform="translate(186,300)"/>
<path d="M0 0 C0.94875 0.04125 1.8975 0.0825 2.875 0.125 C2.875 0.455 2.875 0.785 2.875 1.125 C0.235 1.455 -2.405 1.785 -5.125 2.125 C-3.125 0.125 -3.125 0.125 0 0 Z " fill="#B4DCF9" transform="translate(354.125,205.875)"/>
<path d="M0 0 C0.33 0 0.66 0 1 0 C1 2.64 1 5.28 1 8 C0.67 8 0.34 8 0 8 C0 5.36 0 2.72 0 0 Z " fill="#9CD3F7" transform="translate(171,316)"/>
<path d="M0 0 C2.64 0 5.28 0 8 0 C8 0.33 8 0.66 8 1 C5.36 1 2.72 1 0 1 C0 0.67 0 0.34 0 0 Z " fill="#A2D8F9" transform="translate(181,312)"/>
<path d="M0 0 C2.97 0.495 2.97 0.495 6 1 C6 1.33 6 1.66 6 2 C3.69 2 1.38 2 -1 2 C-0.67 1.34 -0.34 0.68 0 0 Z " fill="#B8DDF8" transform="translate(215,182)"/>
<path d="M0 0 C2.64 0 5.28 0 8 0 C8 0.33 8 0.66 8 1 C5.36 1 2.72 1 0 1 C0 0.67 0 0.34 0 0 Z " fill="#B4DCF9" transform="translate(141,171)"/>
<path d="M0 0 C2.31 0 4.62 0 7 0 C7 0.33 7 0.66 7 1 C4.69 1 2.38 1 0 1 C0 0.67 0 0.34 0 0 Z " fill="#6AB6E0" transform="translate(191,342)"/>
<path d="M0 0 C0.33 0 0.66 0 1 0 C1 2.31 1 4.62 1 7 C0.67 7 0.34 7 0 7 C0 4.69 0 2.38 0 0 Z " fill="#8ECDF3" transform="translate(173,330)"/>
<path d="M0 0 C2.31 0 4.62 0 7 0 C7 0.33 7 0.66 7 1 C4.69 1 2.38 1 0 1 C0 0.67 0 0.34 0 0 Z " fill="#6BB9E5" transform="translate(290,330)"/>
<path d="M0 0 C0.66 0.33 1.32 0.66 2 1 C1 2 1 2 -1.5625 2.0625 C-2.7690625 2.0315625 -2.7690625 2.0315625 -4 2 C-2.125 0.9375 -2.125 0.9375 0 0 Z " fill="#6ABEED" transform="translate(233,329)"/>
<path d="M0 0 C2.31 0 4.62 0 7 0 C7 0.33 7 0.66 7 1 C4.69 1 2.38 1 0 1 C0 0.67 0 0.34 0 0 Z " fill="#62B6E4" transform="translate(209,329)"/>
<path d="M0 0 C1.65 0 3.3 0 5 0 C4.67 0.66 4.34 1.32 4 2 C2.68 1.34 1.36 0.68 0 0 Z " fill="#6AB7E4" transform="translate(236,320)"/>
<path d="M0 0 C0.33 0 0.66 0 1 0 C1 2.31 1 4.62 1 7 C0.67 7 0.34 7 0 7 C0 4.69 0 2.38 0 0 Z " fill="#AFDBF9" transform="translate(342,313)"/>
<path d="M0 0 C2.31 0 4.62 0 7 0 C7 0.33 7 0.66 7 1 C4.69 1 2.38 1 0 1 C0 0.67 0 0.34 0 0 Z " fill="#99D2F6" transform="translate(174,313)"/>
<path d="M0 0 C1.98 0 3.96 0 6 0 C5.34 0.66 4.68 1.32 4 2 C2.68 1.34 1.36 0.68 0 0 Z " fill="#B4DAF4" transform="translate(320,302)"/>
<path d="M0 0 C2.31 0 4.62 0 7 0 C7 0.33 7 0.66 7 1 C4.69 1 2.38 1 0 1 C0 0.67 0 0.34 0 0 Z " fill="#B4D9F3" transform="translate(313,301)"/>
<path d="M0 0 C0.66 1.32 1.32 2.64 2 4 C1.01 4.495 1.01 4.495 0 5 C0 3.35 0 1.7 0 0 Z " fill="#B4DAF6" transform="translate(338,223)"/>
<path d="M0 0 C1.65 0 3.3 0 5 0 C4.34 0.66 3.68 1.32 3 2 C2.01 1.34 1.02 0.68 0 0 Z " fill="#6DB6E0" transform="translate(280,340)"/>
<path d="M0 0 C0.33 0 0.66 0 1 0 C1 1.98 1 3.96 1 6 C0.67 6 0.34 6 0 6 C0 4.02 0 2.04 0 0 Z " fill="#62B6E5" transform="translate(316,335)"/>
<path d="M0 0 C0.33 0 0.66 0 1 0 C1 1.98 1 3.96 1 6 C0.67 6 0.34 6 0 6 C0 4.02 0 2.04 0 0 Z " fill="#93D1F6" transform="translate(306,333)"/>
<path d="M0 0 C0.33 0 0.66 0 1 0 C1 1.98 1 3.96 1 6 C0.67 6 0.34 6 0 6 C0 4.02 0 2.04 0 0 Z " fill="#8ED0F8" transform="translate(172,324)"/>
<path d="M0 0 C0.99 0.66 1.98 1.32 3 2 C1.35 2 -0.3 2 -2 2 C-1.34 1.34 -0.68 0.68 0 0 Z " fill="#6BBBE8" transform="translate(223,325)"/>
<path d="M0 0 C2.475 0.495 2.475 0.495 5 1 C5 1.33 5 1.66 5 2 C3.35 2 1.7 2 0 2 C0 1.34 0 0.68 0 0 Z " fill="#A8D8F9" transform="translate(320,312)"/>
<path d="M0 0 C0.99 1.485 0.99 1.485 2 3 C1.67 3.66 1.34 4.32 1 5 C0.67 3.35 0.34 1.7 0 0 Z " fill="#75B9E0" transform="translate(218,312)"/>
<path d="M0 0 C1.98 0 3.96 0 6 0 C6 0.33 6 0.66 6 1 C4.02 1 2.04 1 0 1 C0 0.67 0 0.34 0 0 Z " fill="#9BD1F4" transform="translate(304,311)"/>
<path d="M0 0 C1.98 0 3.96 0 6 0 C6 0.33 6 0.66 6 1 C4.02 1 2.04 1 0 1 C0 0.67 0 0.34 0 0 Z " fill="#94D4FA" transform="translate(197,310)"/>
<path d="M0 0 C1.65 0 3.3 0 5 0 C4.34 0.66 3.68 1.32 3 2 C2.01 1.34 1.02 0.68 0 0 Z " fill="#B4DAF4" transform="translate(173,302)"/>
<path d="M0 0 C0.33 0 0.66 0 1 0 C1 1.98 1 3.96 1 6 C0.67 6 0.34 6 0 6 C0 4.02 0 2.04 0 0 Z " fill="#B3DDFB" transform="translate(340,218)"/>
<path d="M0 0 C0.33 0.66 0.66 1.32 1 2 C0.34 2.66 -0.32 3.32 -1 4 C-1 1 -1 1 0 0 Z " fill="#B4DBF6" transform="translate(342,214)"/>
<path d="M0 0 C1.98 0 3.96 0 6 0 C6 0.33 6 0.66 6 1 C4.02 1 2.04 1 0 1 C0 0.67 0 0.34 0 0 Z " fill="#B8DBF4" transform="translate(216,167)"/>
<path d="M0 0 C1.65 0 3.3 0 5 0 C5 0.33 5 0.66 5 1 C3.35 1 1.7 1 0 1 C0 0.67 0 0.34 0 0 Z " fill="#64B6E3" transform="translate(232,339)"/>
<path d="M0 0 C0.33 0 0.66 0 1 0 C1 1.65 1 3.3 1 5 C0.67 5 0.34 5 0 5 C0 3.35 0 1.7 0 0 Z " fill="#72B2D4" transform="translate(299,323)"/>
<path d="M0 0 C0.33 0 0.66 0 1 0 C1 1.65 1 3.3 1 5 C0.67 5 0.34 5 0 5 C0 3.35 0 1.7 0 0 Z " fill="#ACD9F6" transform="translate(341,320)"/>
<path d="M0 0 C0.66 0.66 1.32 1.32 2 2 C0.68 1.67 -0.64 1.34 -2 1 C-1.34 0.67 -0.68 0.34 0 0 Z " fill="#69B9E7" transform="translate(234,318)"/>
<path d="M0 0 C0.99 0.33 1.98 0.66 3 1 C2.01 1.33 1.02 1.66 0 2 C0 1.34 0 0.68 0 0 Z " fill="#8FCFF6" transform="translate(226,307)"/>
<path d="M0 0 C0.99 0.99 1.98 1.98 3 3 C2.01 2.67 1.02 2.34 0 2 C0 1.34 0 0.68 0 0 Z " fill="#B8DBF6" transform="translate(165,234)"/>
<path d="M0 0 C0.66 0.66 1.32 1.32 2 2 C1.34 2.66 0.68 3.32 0 4 C0 2.68 0 1.36 0 0 Z " fill="#B6DBF6" transform="translate(205,206)"/>
<path d="M0 0 C4 1 4 1 4 1 Z " fill="#6BB4DE" transform="translate(179,344)"/>
<path d="M0 0 C4 1 4 1 4 1 Z " fill="#6AADCF" transform="translate(254,339)"/>
<path d="M0 0 C1 4 1 4 1 4 Z " fill="#6ABAE7" transform="translate(244,328)"/>
<path d="M0 0 C0 3 0 3 0 3 Z " fill="#7CC3EA" transform="translate(305,326)"/>
<path d="M0 0 C1 4 1 4 1 4 Z " fill="#6AB2DA" transform="translate(218,323)"/>
<path d="M0 0 C4 1 4 1 4 1 Z " fill="#86CCF6" transform="translate(296,310)"/>
<path d="M0 0 C0.99 0.33 1.98 0.66 3 1 C2.01 1 1.02 1 0 1 C0 0.67 0 0.34 0 0 Z " fill="#B6DBF5" transform="translate(336,305)"/>
<path d="M0 0 C0.66 0.33 1.32 0.66 2 1 C1.01 1 0.02 1 -1 1 C-0.67 0.67 -0.34 0.34 0 0 Z " fill="#B3DAF5" transform="translate(163,305)"/>
<path d="M0 0 C0 3 0 3 0 3 Z " fill="#B6DBF5" transform="translate(344,211)"/>
<path d="M0 0 C1 4 1 4 1 4 Z " fill="#BDDFF7" transform="translate(203,169)"/>
<path d="M0 0 C1 4 1 4 1 4 Z " fill="#BCDBF2" transform="translate(241,155)"/>
<path d="M0 0 C3 1 3 1 3 1 Z " fill="#7AC8F4" transform="translate(229,340)"/>
<path d="M0 0 C3 1 3 1 3 1 Z " fill="#68B9E6" transform="translate(226,339)"/>
<path d="M0 0 C0.99 0.495 0.99 0.495 2 1 C1.01 1.495 1.01 1.495 0 2 C0 1.34 0 0.68 0 0 Z " fill="#66B7E4" transform="translate(224,338)"/>
<path d="" fill="#65B9E8" transform="translate(0,0)"/>
<path d="" fill="#83C1E7" transform="translate(0,0)"/>
<path d="" fill="#66B7E5" transform="translate(0,0)"/>
<path d="M0 0 C3 1 3 1 3 1 Z " fill="#A1D6F9" transform="translate(282,308)"/>
<path d="M0 0 C3 1 3 1 3 1 Z " fill="#B4DAF5" transform="translate(165,304)"/>
<path d="M0 0 C0.99 0.495 0.99 0.495 2 1 C1.01 1.495 1.01 1.495 0 2 C0 1.34 0 0.68 0 0 Z " fill="#B8DCF4" transform="translate(209,209)"/>
<path d="M0 0 C0.66 0.66 1.32 1.32 2 2 C1.34 2 0.68 2 0 2 C0 1.34 0 0.68 0 0 Z " fill="#B5DBF8" transform="translate(175,189)"/>
<path d="" fill="#B9D8ED" transform="translate(0,0)"/>
<path d="" fill="#BBDAF1" transform="translate(0,0)"/>
<path d="M0 0 C0.99 0.495 0.99 0.495 2 1 C1.01 1.495 1.01 1.495 0 2 C0 1.34 0 0.68 0 0 Z " fill="#B5DAF5" transform="translate(276,164)"/>
<path d="" fill="#B7DEFB" transform="translate(0,0)"/>
<path d="" fill="#BCDFF8" transform="translate(0,0)"/>
<path d="M0 0 C3 1 3 1 3 1 Z " fill="#B8D8ED" transform="translate(247,139)"/>
<path d="M0 0 C2 1 2 1 2 1 Z " fill="#9ED2F5" transform="translate(317,343)"/>
<path d="M0 0 C2 1 2 1 2 1 Z " fill="#8DCBF2" transform="translate(271,342)"/>
<path d="" fill="#A0CFF0" transform="translate(0,0)"/>
<path d="" fill="#A0D5F8" transform="translate(0,0)"/>
<path d="M0 0 C2 1 2 1 2 1 Z " fill="#84CAF3" transform="translate(271,340)"/>
<path d="" fill="#7FBFE3" transform="translate(0,0)"/>
<path d="M0 0 C2 1 2 1 2 1 Z " fill="#5EB4E2" transform="translate(237,338)"/>
<path d="" fill="#5FB6E7" transform="translate(0,0)"/>
<path d="" fill="#76B9DD" transform="translate(0,0)"/>
<path d="" fill="#6EBCE9" transform="translate(0,0)"/>
<path d="" fill="#84C2E6" transform="translate(0,0)"/>
<path d="" fill="#71BDEB" transform="translate(0,0)"/>
<path d="" fill="#6FBBE7" transform="translate(0,0)"/>
<path d="" fill="#79BDE3" transform="translate(0,0)"/>
<path d="" fill="#6BB7E4" transform="translate(0,0)"/>
<path d="M0 0 C2 1 2 1 2 1 Z " fill="#7DC2EC" transform="translate(325,314)"/>
<path d="M0 0 C2 1 2 1 2 1 Z " fill="#76BDE5" transform="translate(224,309)"/>
<path d="M0 0 C2 1 2 1 2 1 Z " fill="#AAD9F9" transform="translate(304,302)"/>
<path d="M0 0 C2 1 2 1 2 1 Z " fill="#B5DAF5" transform="translate(165,244)"/>
<path d="M0 0 C2 1 2 1 2 1 Z " fill="#B4DAF4" transform="translate(167,243)"/>
<path d="" fill="#B7DBF5" transform="translate(0,0)"/>
<path d="" fill="#B6DBF4" transform="translate(0,0)"/>
<path d="" fill="#B6DBF6" transform="translate(0,0)"/>
<path d="" fill="#B6DBF5" transform="translate(0,0)"/>
<path d="M0 0 C2 1 2 1 2 1 Z " fill="#B7DBF5" transform="translate(327,210)"/>
<path d="M0 0 C2 1 2 1 2 1 Z " fill="#B7DBF4" transform="translate(346,209)"/>
<path d="M0 0 C2 1 2 1 2 1 Z " fill="#B7DBF5" transform="translate(325,209)"/>
<path d="M0 0 C2 1 2 1 2 1 Z " fill="#B1D8F2" transform="translate(357,207)"/>
<path d="" fill="#B7DCF5" transform="translate(0,0)"/>
<path d="M0 0 C2 1 2 1 2 1 Z " fill="#B7DBF4" transform="translate(193,192)"/>
<path d="" fill="#B5DDFB" transform="translate(0,0)"/>
<path d="M0 0 C2 1 2 1 2 1 Z " fill="#B7DAF3" transform="translate(173,191)"/>
<path d="M0 0 C2 1 2 1 2 1 Z " fill="#AFD5F1" transform="translate(238,183)"/>
<path d="M0 0 C2 1 2 1 2 1 Z " fill="#B2DAF7" transform="translate(158,174)"/>
<path d="M0 0 C2 1 2 1 2 1 Z " fill="#B6DAF5" transform="translate(151,173)"/>
<path d="M0 0 C2 1 2 1 2 1 Z " fill="#B6DAF6" transform="translate(149,172)"/>
<path d="M0 0 C2 1 2 1 2 1 Z " fill="#B4DAF6" transform="translate(139,172)"/>
<path d="" fill="#B1D9F6" transform="translate(0,0)"/>
<path d="" fill="#B7DBF3" transform="translate(0,0)"/>
<path d="" fill="#B9DCF6" transform="translate(0,0)"/>
<path d="M0 0 C2 1 2 1 2 1 Z " fill="#BDDDF3" transform="translate(238,153)"/>
<path d="M0 0 C2 1 2 1 2 1 Z " fill="#BCDDF4" transform="translate(224,153)"/>
<path d="" fill="#B7DAF2" transform="translate(0,0)"/>
<path d="M0 0 C2 1 2 1 2 1 Z " fill="#BADAF2" transform="translate(245,138)"/>
<path d="" fill="#B5D8F1" transform="translate(0,0)"/>
<path d="" fill="#B8DBF2" transform="translate(0,0)"/>
<path d="" fill="#9CC8E6" transform="translate(0,0)"/>
<path d="" fill="#B4D9F4" transform="translate(0,0)"/>
<path d="" fill="#6CB8E4" transform="translate(0,0)"/>
<path d="" fill="#90CCF3" transform="translate(0,0)"/>
<path d="" fill="#7EBBE0" transform="translate(0,0)"/>
<path d="" fill="#79B9E0" transform="translate(0,0)"/>
<path d="" fill="#89C8EE" transform="translate(0,0)"/>
<path d="" fill="#90CDF3" transform="translate(0,0)"/>
<path d="" fill="#8DCAF0" transform="translate(0,0)"/>
<path d="" fill="#99CCEE" transform="translate(0,0)"/>
<path d="" fill="#92D0F6" transform="translate(0,0)"/>
<path d="" fill="#8ACAF1" transform="translate(0,0)"/>
<path d="" fill="#8BCAF2" transform="translate(0,0)"/>
<path d="" fill="#88C9F2" transform="translate(0,0)"/>
<path d="" fill="#8CCCF4" transform="translate(0,0)"/>
<path d="" fill="#63B6E4" transform="translate(0,0)"/>
<path d="" fill="#84C3E9" transform="translate(0,0)"/>
<path d="" fill="#82C8F1" transform="translate(0,0)"/>
<path d="" fill="#61B6E6" transform="translate(0,0)"/>
<path d="" fill="#9BCFF2" transform="translate(0,0)"/>
<path d="" fill="#62AFD8" transform="translate(0,0)"/>
<path d="" fill="#6DB8E4" transform="translate(0,0)"/>
<path d="" fill="#8DCEF5" transform="translate(0,0)"/>
<path d="" fill="#59B4E6" transform="translate(0,0)"/>
<path d="" fill="#5BB4E5" transform="translate(0,0)"/>
<path d="" fill="#A0D3F6" transform="translate(0,0)"/>
<path d="" fill="#59B3E5" transform="translate(0,0)"/>
<path d="" fill="#62B7E8" transform="translate(0,0)"/>
<path d="" fill="#9BCDEF" transform="translate(0,0)"/>
<path d="" fill="#57B4E8" transform="translate(0,0)"/>
<path d="" fill="#9ED0F2" transform="translate(0,0)"/>
<path d="" fill="#99CCEE" transform="translate(0,0)"/>
<path d="" fill="#90CCF2" transform="translate(0,0)"/>
<path d="" fill="#5BB5E7" transform="translate(0,0)"/>
<path d="" fill="#95C5E5" transform="translate(0,0)"/>
<path d="" fill="#9ED3F6" transform="translate(0,0)"/>
<path d="" fill="#95C5E5" transform="translate(0,0)"/>
<path d="" fill="#9CD3F7" transform="translate(0,0)"/>
<path d="" fill="#A3D5F7" transform="translate(0,0)"/>
<path d="" fill="#92D2F7" transform="translate(0,0)"/>
<path d="" fill="#53B6EC" transform="translate(0,0)"/>
<path d="" fill="#58B6EB" transform="translate(0,0)"/>
<path d="" fill="#94CFF5" transform="translate(0,0)"/>
<path d="" fill="#59B6EA" transform="translate(0,0)"/>
<path d="" fill="#A3D5F7" transform="translate(0,0)"/>
<path d="" fill="#94CFF4" transform="translate(0,0)"/>
<path d="" fill="#96D0F5" transform="translate(0,0)"/>
<path d="" fill="#59B6EA" transform="translate(0,0)"/>
<path d="" fill="#5AB3E5" transform="translate(0,0)"/>
<path d="" fill="#5CB5E6" transform="translate(0,0)"/>
<path d="" fill="#5EB5E6" transform="translate(0,0)"/>
<path d="" fill="#98D1F5" transform="translate(0,0)"/>
<path d="" fill="#5EB4E3" transform="translate(0,0)"/>
<path d="" fill="#66B7E5" transform="translate(0,0)"/>
<path d="" fill="#7FBFE3" transform="translate(0,0)"/>
<path d="" fill="#82C7EF" transform="translate(0,0)"/>
<path d="" fill="#61B3E2" transform="translate(0,0)"/>
<path d="" fill="#A4D1F0" transform="translate(0,0)"/>
<path d="" fill="#9AD1F5" transform="translate(0,0)"/>
<path d="" fill="#6EB0D1" transform="translate(0,0)"/>
<path d="" fill="#80BEE1" transform="translate(0,0)"/>
<path d="" fill="#ABDAFA" transform="translate(0,0)"/>
<path d="" fill="#65B7E6" transform="translate(0,0)"/>
<path d="" fill="#68B3DC" transform="translate(0,0)"/>
<path d="" fill="#79B7D9" transform="translate(0,0)"/>
<path d="" fill="#5DB4E7" transform="translate(0,0)"/>
<path d="" fill="#60B6E7" transform="translate(0,0)"/>
<path d="" fill="#A6D5F6" transform="translate(0,0)"/>
<path d="" fill="#65B6E2" transform="translate(0,0)"/>
<path d="" fill="#80C4EC" transform="translate(0,0)"/>
<path d="" fill="#72B8DD" transform="translate(0,0)"/>
<path d="" fill="#ABD9FA" transform="translate(0,0)"/>
<path d="" fill="#A8D7F8" transform="translate(0,0)"/>
<path d="" fill="#5BB3E6" transform="translate(0,0)"/>
<path d="" fill="#AAD8F8" transform="translate(0,0)"/>
<path d="" fill="#5DB5E7" transform="translate(0,0)"/>
<path d="" fill="#61B5E3" transform="translate(0,0)"/>
<path d="" fill="#6DBAE8" transform="translate(0,0)"/>
<path d="" fill="#73B9E2" transform="translate(0,0)"/>
<path d="" fill="#A6D5F5" transform="translate(0,0)"/>
<path d="" fill="#6DBAE2" transform="translate(0,0)"/>
<path d="" fill="#B1D9F5" transform="translate(0,0)"/>
<path d="" fill="#8EC7EA" transform="translate(0,0)"/>
<path d="" fill="#B5DCF7" transform="translate(0,0)"/>
<path d="" fill="#B5DAF4" transform="translate(0,0)"/>
<path d="" fill="#A0D4F7" transform="translate(0,0)"/>
<path d="" fill="#9CD1F4" transform="translate(0,0)"/>
<path d="" fill="#A2D4F6" transform="translate(0,0)"/>
<path d="" fill="#B5DBF6" transform="translate(0,0)"/>
<path d="" fill="#9FD3F5" transform="translate(0,0)"/>
<path d="" fill="#98CCEE" transform="translate(0,0)"/>
<path d="" fill="#9CCEEF" transform="translate(0,0)"/>
<path d="" fill="#9CCDEE" transform="translate(0,0)"/>
<path d="" fill="#97C5E5" transform="translate(0,0)"/>
<path d="" fill="#94C4E4" transform="translate(0,0)"/>
<path d="" fill="#94C4E4" transform="translate(0,0)"/>
<path d="" fill="#9AC7E5" transform="translate(0,0)"/>
<path d="" fill="#A8D8F9" transform="translate(0,0)"/>
<path d="" fill="#AAD9FA" transform="translate(0,0)"/>
<path d="" fill="#AAD9FA" transform="translate(0,0)"/>
<path d="" fill="#9DCEEF" transform="translate(0,0)"/>
<path d="" fill="#A5D7F9" transform="translate(0,0)"/>
<path d="" fill="#A5D7F8" transform="translate(0,0)"/>
<path d="" fill="#B0D8F4" transform="translate(0,0)"/>
<path d="" fill="#B8DBF6" transform="translate(0,0)"/>
<path d="" fill="#B6D9F3" transform="translate(0,0)"/>
<path d="" fill="#B7DBF6" transform="translate(0,0)"/>
<path d="" fill="#B8DBF5" transform="translate(0,0)"/>
<path d="" fill="#B7DBF6" transform="translate(0,0)"/>
<path d="" fill="#B7DBF5" transform="translate(0,0)"/>
<path d="" fill="#B6DAF4" transform="translate(0,0)"/>
<path d="" fill="#B6DAF3" transform="translate(0,0)"/>
<path d="" fill="#B7DBF4" transform="translate(0,0)"/>
<path d="" fill="#B0D8F5" transform="translate(0,0)"/>
<path d="" fill="#B6DBF6" transform="translate(0,0)"/>
<path d="" fill="#B8DCF6" transform="translate(0,0)"/>
<path d="" fill="#B7DCF4" transform="translate(0,0)"/>
<path d="" fill="#B8DCF7" transform="translate(0,0)"/>
<path d="" fill="#B7DCF5" transform="translate(0,0)"/>
<path d="" fill="#B3DCFB" transform="translate(0,0)"/>
<path d="" fill="#B2DBF8" transform="translate(0,0)"/>
<path d="" fill="#B4DCFA" transform="translate(0,0)"/>
<path d="" fill="#B8DCF7" transform="translate(0,0)"/>
<path d="" fill="#B8DCF6" transform="translate(0,0)"/>
<path d="" fill="#B9DCF8" transform="translate(0,0)"/>
<path d="" fill="#B8DCF6" transform="translate(0,0)"/>
<path d="" fill="#B8DCF8" transform="translate(0,0)"/>
<path d="" fill="#B4DCFA" transform="translate(0,0)"/>
<path d="" fill="#B8DCF7" transform="translate(0,0)"/>
<path d="" fill="#B8DCF7" transform="translate(0,0)"/>
<path d="" fill="#B6DBF6" transform="translate(0,0)"/>
<path d="" fill="#B7DBF6" transform="translate(0,0)"/>
<path d="" fill="#B7DBF5" transform="translate(0,0)"/>
<path d="" fill="#B6DAF5" transform="translate(0,0)"/>
<path d="" fill="#B7DBF6" transform="translate(0,0)"/>
<path d="" fill="#B2DBF9" transform="translate(0,0)"/>
<path d="" fill="#B6DBF4" transform="translate(0,0)"/>
<path d="" fill="#B3DCFA" transform="translate(0,0)"/>
<path d="" fill="#B7DBF5" transform="translate(0,0)"/>
<path d="" fill="#B7DCF5" transform="translate(0,0)"/>
<path d="" fill="#B7DAF5" transform="translate(0,0)"/>
<path d="" fill="#B7DBF5" transform="translate(0,0)"/>
<path d="" fill="#B8DCF5" transform="translate(0,0)"/>
<path d="" fill="#B2DBF8" transform="translate(0,0)"/>
<path d="" fill="#B6DCF5" transform="translate(0,0)"/>
<path d="" fill="#A6CCE8" transform="translate(0,0)"/>
<path d="" fill="#B8DCF4" transform="translate(0,0)"/>
<path d="" fill="#B5DDFB" transform="translate(0,0)"/>
<path d="" fill="#B2DBF9" transform="translate(0,0)"/>
<path d="" fill="#B3DCFA" transform="translate(0,0)"/>
<path d="" fill="#B4DEFC" transform="translate(0,0)"/>
<path d="" fill="#ADD5F2" transform="translate(0,0)"/>
<path d="" fill="#B5DEFB" transform="translate(0,0)"/>
<path d="" fill="#B7DBF6" transform="translate(0,0)"/>
<path d="" fill="#B5DAF4" transform="translate(0,0)"/>
<path d="" fill="#B6DBF5" transform="translate(0,0)"/>
<path d="" fill="#B6DAF4" transform="translate(0,0)"/>
<path d="" fill="#B7DBF6" transform="translate(0,0)"/>
<path d="" fill="#B6DAF3" transform="translate(0,0)"/>
<path d="" fill="#B7DCF6" transform="translate(0,0)"/>
<path d="" fill="#B6DAF4" transform="translate(0,0)"/>
<path d="" fill="#B7DCF5" transform="translate(0,0)"/>
<path d="" fill="#A7CCE7" transform="translate(0,0)"/>
<path d="" fill="#B7DCF5" transform="translate(0,0)"/>
<path d="" fill="#BDDBEF" transform="translate(0,0)"/>
<path d="" fill="#B4DBF8" transform="translate(0,0)"/>
<path d="" fill="#AED5F2" transform="translate(0,0)"/>
<path d="" fill="#B5DCF9" transform="translate(0,0)"/>
<path d="" fill="#A7CCE7" transform="translate(0,0)"/>
<path d="" fill="#AFD5F1" transform="translate(0,0)"/>
<path d="" fill="#AFD5F1" transform="translate(0,0)"/>
<path d="" fill="#A7CCE7" transform="translate(0,0)"/>
<path d="" fill="#B9DBF5" transform="translate(0,0)"/>
<path d="" fill="#B5DEFC" transform="translate(0,0)"/>
<path d="" fill="#B8DBF4" transform="translate(0,0)"/>
<path d="" fill="#B5DEFC" transform="translate(0,0)"/>
<path d="" fill="#B8DCF5" transform="translate(0,0)"/>
<path d="" fill="#BBDBF4" transform="translate(0,0)"/>
<path d="" fill="#BBDBF3" transform="translate(0,0)"/>
<path d="" fill="#B7DBF5" transform="translate(0,0)"/>
<path d="" fill="#B5DCF9" transform="translate(0,0)"/>
<path d="" fill="#B4DDFA" transform="translate(0,0)"/>
<path d="" fill="#B7DBF5" transform="translate(0,0)"/>
<path d="" fill="#BDDCF3" transform="translate(0,0)"/>
<path d="" fill="#B5DDFB" transform="translate(0,0)"/>
<path d="" fill="#B8DBF4" transform="translate(0,0)"/>
<path d="" fill="#B6DBF5" transform="translate(0,0)"/>
<path d="" fill="#B6DDFA" transform="translate(0,0)"/>
<path d="" fill="#B6DBF5" transform="translate(0,0)"/>
<path d="" fill="#B4DCF9" transform="translate(0,0)"/>
<path d="" fill="#B1DAF7" transform="translate(0,0)"/>
<path d="" fill="#B9DBF2" transform="translate(0,0)"/>
<path d="" fill="#B4DCF9" transform="translate(0,0)"/>
<path d="" fill="#B8DBF3" transform="translate(0,0)"/>
<path d="" fill="#B1D8F5" transform="translate(0,0)"/>
<path d="" fill="#ADD5F2" transform="translate(0,0)"/>
<path d="" fill="#B7DBF5" transform="translate(0,0)"/>
<path d="" fill="#B6DEFB" transform="translate(0,0)"/>
<path d="" fill="#B8DCF4" transform="translate(0,0)"/>
<path d="" fill="#B8DBF3" transform="translate(0,0)"/>
<path d="" fill="#B8DCF6" transform="translate(0,0)"/>
<path d="" fill="#B3D8F3" transform="translate(0,0)"/>
<path d="" fill="#BCDBEF" transform="translate(0,0)"/>
<path d="" fill="#BBDBF3" transform="translate(0,0)"/>
<path d="" fill="#BEDBEF" transform="translate(0,0)"/>
<path d="" fill="#A9CCE5" transform="translate(0,0)"/>
<path d="" fill="#B9DBF2" transform="translate(0,0)"/>
<path d="" fill="#B8DDF8" transform="translate(0,0)"/>
<path d="" fill="#B7DBF4" transform="translate(0,0)"/>
<path d="" fill="#ACCCE3" transform="translate(0,0)"/>
<path d="" fill="#B9DEF8" transform="translate(0,0)"/>
<path d="" fill="#B3D5ED" transform="translate(0,0)"/>
<path d="" fill="#B3D5ED" transform="translate(0,0)"/>
<path d="" fill="#B8DCF4" transform="translate(0,0)"/>
<path d="" fill="#BBDEF7" transform="translate(0,0)"/>
<path d="" fill="#BBDEF7" transform="translate(0,0)"/>
<path d="" fill="#B6D9F0" transform="translate(0,0)"/>
<path d="" fill="#BADBF2" transform="translate(0,0)"/>
</svg>
